#Comment line ignore any data following # character 
#Hierarchical Translation and Rotation (.htr) file 
[Header]	
#Header keywords are followed by a single value 
FileType HTR		#Single word string
DataType HTRS		#Translation followed by rotation and scale data
FileVersion 1		#integer
NumSegments 64		#integer
NumFrames 3		#integer
DataFrameRate 30		#integer, data frame rate in this file
EulerRotationOrder ZYX
CalibrationUnits mm
RotationUnits Degrees
GlobalAxisofGravity Y
BoneLengthAxis Y
ScaleFactor 1.00
[SegmentNames&Hierarchy]
#CHILD	PARENT
Pinger_Root GLOBAL
Pelvis Pinger_Root
L_Hip Pelvis
R_Hip Pelvis
Rear_Leg01 Pelvis
Spine1 Pelvis
L_Leg01 L_Hip
L_Leg02 L_Leg01
L_Leg03 L_Leg02
L_Foot L_Leg03
L_Toe1_01 L_Foot
L_Toe2_01 L_Foot
L_Toe3_01 L_Foot
planeAlignerLeft L_Foot
L_Toe1_02 L_Toe1_01
L_Toe1_03 L_Toe1_02
L_Toe2_02 L_Toe2_01
L_Toe2_03 L_Toe2_02
L_Toe3_02 L_Toe3_01
L_Toe3_03 L_Toe3_02
planeLockWeightLeft planeAlignerLeft
R_Leg01 R_Hip
R_Leg02 R_Leg01
R_Leg03 R_Leg02
R_Foot R_Leg03
planeAlignerRight R_Foot
R_Toe1_01 R_Foot
R_Toe2_01 R_Foot
R_Toe3_01 R_Foot
planeLockWeightRight planeAlignerRight
R_Toe1_02 R_Toe1_01
R_Toe1_03 R_Toe1_02
R_Toe2_02 R_Toe2_01
R_Toe2_03 R_Toe2_02
R_Toe3_02 R_Toe3_01
R_Toe3_03 R_Toe3_02
Rear_Leg02 Rear_Leg01
Rear_Leg03 Rear_Leg02
Rear_Leg04 Rear_Leg03
Rear_Foot Rear_Leg04
planeAlignerCenter Rear_Foot
Rear_Toe1_01 Rear_Foot
Rear_Toe2_01 Rear_Foot
Rear_Toe3_01 Rear_Foot
planeLockWeightCenter planeAlignerCenter
Rear_Toe1_02 Rear_Toe1_01
Rear_Toe1_03 Rear_Toe1_02
Rear_Toe2_02 Rear_Toe2_01
Rear_Toe2_03 Rear_Toe2_02
Rear_Toe3_02 Rear_Toe3_01
Rear_Toe3_03 Rear_Toe3_02
Back_Bone Spine1
Head Spine1
Motor_Bone Back_Bone
Ping_Mechanism Back_Bone
BN_LookIK Head
bottomMouth Head
L_Mouth01 Head
L_mouthFront Head
mouthGun Head
R_Mouth01 Head
R_mouthFront Head
TopMouth Head
weapon_bone Head
[BasePosition]
#SegmentName Tx, Ty, Tz, Rx, Ry, Rz, BoneLength
Pinger_Root 0.000000 0.000000 0.000000 -90.000000 0.000000 0.000000 10.000000 
Pelvis 0.000000 0.000000 0.000000 0.000000 0.000000 0.000000 10.000000 
L_Hip 0.000000 0.000000 0.000000 0.000000 0.000000 0.000000 10.000000 
R_Hip 0.000000 0.000000 0.000000 0.000000 0.000000 0.000000 10.000000 
Rear_Leg01 0.000000 0.000000 0.000000 0.000000 0.000000 0.000000 10.000000 
Spine1 0.000000 0.000000 0.000000 0.000000 0.000000 0.000000 10.000000 
L_Leg01 0.000000 0.000000 0.000000 0.000000 0.000000 0.000000 10.000000 
L_Leg02 0.000000 0.000000 0.000000 0.000000 0.000000 0.000000 10.000000 
L_Leg03 0.000000 0.000000 0.000000 0.000000 0.000000 0.000000 10.000000 
L_Foot 0.000000 0.000000 0.000000 0.000000 0.000000 0.000000 10.000000 
L_Toe1_01 0.000000 0.000000 0.000000 0.000000 0.000000 0.000000 10.000000 
L_Toe2_01 0.000000 0.000000 0.000000 0.000000 0.000000 0.000000 10.000000 
L_Toe3_01 0.000000 0.000000 0.000000 0.000000 0.000000 0.000000 10.000000 
planeAlignerLeft 0.000000 0.000000 0.000000 0.000000 0.000000 0.000000 10.000000 
L_Toe1_02 0.000000 0.000000 0.000000 0.000000 0.000000 0.000000 10.000000 
L_Toe1_03 0.000000 0.000000 0.000000 0.000000 0.000000 0.000000 10.000000 
L_Toe2_02 0.000000 0.000000 0.000000 0.000000 0.000000 0.000000 10.000000 
L_Toe2_03 0.000000 0.000000 0.000000 0.000000 0.000000 0.000000 10.000000 
L_Toe3_02 0.000000 0.000000 0.000000 0.000000 0.000000 0.000000 10.000000 
L_Toe3_03 0.000000 0.000000 0.000000 0.000000 0.000000 0.000000 10.000000 
planeLockWeightLeft 0.000000 0.000000 0.000000 0.000000 0.000000 0.000000 10.000000 
R_Leg01 0.000000 0.000000 0.000000 0.000000 0.000000 0.000000 10.000000 
R_Leg02 0.000000 0.000000 0.000000 0.000000 0.000000 0.000000 10.000000 
R_Leg03 0.000000 0.000000 0.000000 0.000000 0.000000 0.000000 10.000000 
R_Foot 0.000000 0.000000 0.000000 0.000000 0.000000 0.000000 10.000000 
planeAlignerRight 0.000000 0.000000 0.000000 0.000000 0.000000 0.000000 10.000000 
R_Toe1_01 0.000000 0.000000 0.000000 0.000000 0.000000 0.000000 10.000000 
R_Toe2_01 0.000000 0.000000 0.000000 0.000000 0.000000 0.000000 10.000000 
R_Toe3_01 0.000000 0.000000 0.000000 0.000000 0.000000 0.000000 10.000000 
planeLockWeightRight 0.000000 0.000000 0.000000 0.000000 0.000000 0.000000 10.000000 
R_Toe1_02 0.000000 0.000000 0.000000 0.000000 0.000000 0.000000 10.000000 
R_Toe1_03 0.000000 0.000000 0.000000 0.000000 0.000000 0.000000 10.000000 
R_Toe2_02 0.000000 0.000000 0.000000 0.000000 0.000000 0.000000 10.000000 
R_Toe2_03 0.000000 0.000000 0.000000 0.000000 0.000000 0.000000 10.000000 
R_Toe3_02 0.000000 0.000000 0.000000 0.000000 0.000000 0.000000 10.000000 
R_Toe3_03 0.000000 0.000000 0.000000 0.000000 0.000000 0.000000 10.000000 
Rear_Leg02 0.000000 0.000000 0.000000 0.000000 0.000000 0.000000 10.000000 
Rear_Leg03 0.000000 0.000000 0.000000 0.000000 0.000000 0.000000 10.000000 
Rear_Leg04 0.000000 0.000000 0.000000 0.000000 0.000000 0.000000 10.000000 
Rear_Foot 0.000000 0.000000 0.000000 0.000000 0.000000 0.000000 10.000000 
planeAlignerCenter 0.000000 0.000000 0.000000 0.000000 0.000000 0.000000 10.000000 
Rear_Toe1_01 0.000000 0.000000 0.000000 0.000000 0.000000 0.000000 10.000000 
Rear_Toe2_01 0.000000 0.000000 0.000000 0.000000 0.000000 0.000000 10.000000 
Rear_Toe3_01 0.000000 0.000000 0.000000 0.000000 0.000000 0.000000 10.000000 
planeLockWeightCenter 0.000000 0.000000 0.000000 0.000000 0.000000 0.000000 10.000000 
Rear_Toe1_02 0.000000 0.000000 0.000000 0.000000 0.000000 0.000000 10.000000 
Rear_Toe1_03 0.000000 0.000000 0.000000 0.000000 0.000000 0.000000 10.000000 
Rear_Toe2_02 0.000000 0.000000 0.000000 0.000000 0.000000 0.000000 10.000000 
Rear_Toe2_03 0.000000 0.000000 0.000000 0.000000 0.000000 0.000000 10.000000 
Rear_Toe3_02 0.000000 0.000000 0.000000 0.000000 0.000000 0.000000 10.000000 
Rear_Toe3_03 0.000000 0.000000 0.000000 0.000000 0.000000 0.000000 10.000000 
Back_Bone 0.000000 0.000000 0.000000 0.000000 0.000000 0.000000 10.000000 
Head 0.000000 0.000000 0.000000 0.000000 0.000000 0.000000 10.000000 
Motor_Bone 0.000000 0.000000 0.000000 0.000000 0.000000 0.000000 10.000000 
Ping_Mechanism 0.000000 0.000000 0.000000 0.000000 0.000000 0.000000 10.000000 
BN_LookIK 0.000000 0.000000 0.000000 0.000000 0.000000 0.000000 10.000000 
bottomMouth 0.000000 0.000000 0.000000 0.000000 0.000000 0.000000 10.000000 
L_Mouth01 0.000000 0.000000 0.000000 0.000000 0.000000 0.000000 10.000000 
L_mouthFront 0.000000 0.000000 0.000000 0.000000 0.000000 0.000000 10.000000 
mouthGun 0.000000 0.000000 0.000000 0.000000 0.000000 0.000000 10.000000 
R_Mouth01 0.000000 0.000000 0.000000 0.000000 0.000000 0.000000 10.000000 
R_mouthFront 0.000000 0.000000 0.000000 0.000000 0.000000 0.000000 10.000000 
TopMouth 0.000000 0.000000 0.000000 0.000000 0.000000 0.000000 10.000000 
weapon_bone 0.000000 0.000000 0.000000 0.000000 0.000000 0.000000 10.000000 
#Beginning of Data. Separated by tabs
#Fr	Tx	Ty	Tz	Rx	Ry	Rz	SF
[Pinger_Root]
56 -0.000020 -2500.000000 0.000000 -0.000075 -0.000000 -0.000020 2500.000000
57 -0.000020 -2500.000000 0.000000 -0.000075 -0.000000 -0.000020 2500.000000
58 -0.000020 -2500.000000 0.000000 -0.000075 -0.000000 -0.000020 2500.000000
[Pelvis]
56 140.127563 1040.026367 4053.413818 -74.461784 -74.916939 74.227806 4187.058105
57 129.701843 1036.871338 4052.426758 -72.587997 -74.544510 72.053932 4184.983398
58 120.213097 1033.046387 4056.556641 -72.229530 -73.783653 71.389389 4187.754395
[L_Hip]
56 5.766392 125.831482 872.656799 162.558304 -68.693604 110.049965 881.701050
57 5.766392 125.831482 872.656799 162.013840 -67.404350 111.038612 881.701050
58 5.766392 125.831482 872.656799 161.551971 -66.111160 111.946938 881.701050
[R_Hip]
56 5.765438 125.836372 -872.654907 30.125414 71.009445 117.476456 881.699829
57 5.765438 125.836372 -872.654907 31.122026 69.853363 118.425346 881.699829
58 5.765438 125.836372 -872.654907 32.014568 68.691231 119.269928 881.699829
[Rear_Leg01]
56 -192.298416 -925.602966 -0.001907 173.478683 4.976332 -121.042114 945.367432
57 -192.298416 -925.602966 -0.001907 179.909973 4.050685 -124.820930 945.367432
58 -192.298416 -925.602966 -0.001907 179.514343 4.385455 -131.087234 945.367432
[Spine1]
56 290.604584 5.007505 0.000477 -2.041290 -3.248371 11.504559 290.647736
57 290.604584 5.007505 0.000477 -1.879024 -3.886191 11.139166 290.647736
58 290.604584 5.007505 0.000477 -1.603431 -4.277637 10.284081 290.647736
[L_Leg01]
56 761.932007 -0.002384 -0.069261 24.863312 -44.068939 -25.362089 761.932068
57 761.932007 -0.002384 -0.069261 24.398352 -42.780937 -25.388102 761.932068
58 761.932007 -0.002384 -0.069261 23.321693 -41.726151 -24.491779 761.932068
[L_Leg02]
56 1441.140503 -0.000954 -0.000715 2.536181 -0.116309 -124.815285 1441.140503
57 1441.140503 -0.000954 -0.000715 2.627795 -0.094211 -124.644585 1441.140503
58 1441.140503 -0.000954 -0.000715 2.719474 -0.072387 -124.473885 1441.140503
[L_Leg03]
56 1686.963989 -0.000715 -0.000954 -0.036465 0.016995 119.940926 1686.963989
57 1686.963989 -0.000715 -0.000954 -0.038616 0.017825 120.617287 1686.963989
58 1686.963989 -0.000715 -0.000954 -0.040757 0.018680 121.293671 1686.963989
[L_Foot]
56 3041.570068 -30.715107 11.297464 -2.657391 7.887696 43.900051 3041.746094
57 3041.570068 -30.715107 11.297464 -2.254211 8.179914 44.278004 3041.746094
58 3041.570068 -30.715107 11.297464 -1.848750 8.469508 44.658337 3041.746094
[L_Toe1_01]
56 -188.216690 -224.732346 -21.137953 90.875023 -4.069196 -165.773224 293.899567
57 -188.216690 -224.732346 -21.137953 91.064384 -4.342654 -166.747971 293.899567
58 -188.216690 -224.732346 -21.137953 91.258415 -4.612795 -167.723724 293.899567
[L_Toe2_01]
56 200.746536 -219.926590 148.838394 -83.990143 -18.601807 -41.769505 332.896027
57 200.746536 -219.926590 148.838394 -84.377670 -19.093740 -42.238392 332.896027
58 200.746536 -219.926590 148.838394 -84.762115 -19.588678 -42.705189 332.896027
[L_Toe3_01]
56 188.832520 -219.859131 -191.078659 -104.605949 25.139837 -50.122345 347.140900
57 188.832520 -219.859131 -191.078659 -104.254791 24.254538 -50.694019 347.140900
58 188.832520 -219.859131 -191.078659 -103.896553 23.372852 -51.267471 347.140900
[planeAlignerLeft]
56 46.589504 -526.906189 13.356812 169.683029 -84.920250 96.272827 529.130554
57 52.366638 -527.379700 20.785780 169.508560 -84.470642 96.090019 530.380676
58 58.143742 -527.853210 28.214724 169.333466 -84.021088 95.907692 531.794861
[L_Toe1_02]
56 413.761139 0.000477 0.000000 0.001385 -25.803165 0.001385 413.761139
57 413.761139 0.000477 0.000000 0.001385 -25.816704 0.001385 413.761139
58 413.761139 0.000477 0.000000 0.001385 -25.830240 0.001385 413.761139
[L_Toe1_03]
56 464.317322 0.000358 -0.000089 0.003414 49.788666 0.003414 464.317322
57 464.317322 0.000358 -0.000089 0.003586 51.781624 0.003586 464.317322
58 464.317322 0.000358 -0.000089 0.003775 53.774544 0.003775 464.317322
[L_Toe2_02]
56 342.235809 -0.000477 0.000238 0.001182 -76.644394 0.001182 342.235809
57 342.235809 -0.000477 0.000238 0.001182 -76.293594 0.001182 342.235809
58 342.235809 -0.000477 0.000238 0.001183 -75.942833 0.001183 342.235809
[L_Toe2_03]
56 420.210846 -0.000715 0.000000 -179.993744 81.770348 -179.990234 420.210846
57 420.210846 -0.000715 0.000000 -179.992004 83.237579 -179.988510 420.210846
58 420.210846 -0.000715 0.000000 -179.989304 84.704468 -179.985809 420.210846
[L_Toe3_02]
56 329.270111 0.000954 0.000000 0.003317 -83.086960 0.003317 329.270111
57 329.270111 0.000954 0.000000 0.003122 -82.999329 0.003122 329.270111
58 329.270111 0.000954 0.000000 0.002928 -82.911667 0.002928 329.270111
[L_Toe3_03]
56 439.137451 -0.001907 0.000954 179.991013 64.906273 179.998184 439.137451
57 439.137451 -0.001907 0.000954 179.990875 65.599731 179.998032 439.137451
58 439.137451 -0.001907 0.000954 179.990738 66.206917 179.997879 439.137451
[planeLockWeightLeft]
56 1000.000244 -0.000099 -0.000095 -0.011826 -0.004376 0.005620 1000.000244
57 1000.000244 -0.000107 -0.000095 -0.011826 -0.004376 0.005620 1000.000244
58 1000.000244 -0.000115 -0.000095 -0.011826 -0.004376 0.005620 1000.000244
[R_Leg01]
56 761.455627 -0.001907 -0.000358 131.331985 -8.696813 51.350990 761.455688
57 761.455627 -0.001907 -0.000358 131.995682 -8.333555 48.924141 761.455688
58 761.455627 -0.001907 -0.000358 132.730942 -8.527892 46.634369 761.455688
[R_Leg02]
56 1441.140625 0.000000 -0.000238 -2.796674 -1.802228 -115.672218 1441.140625
57 1441.140625 0.000000 -0.000238 -2.798915 -1.829064 -116.797905 1441.140625
58 1441.140625 0.000000 -0.000238 -2.800626 -1.855936 -117.923637 1441.140625
[R_Leg03]
56 1686.963989 0.000954 0.001431 0.148034 -0.101286 150.935593 1686.963989
57 1686.963989 0.000954 0.001431 0.150046 -0.101231 151.367310 1686.963989
58 1686.963989 0.000954 0.001431 0.150141 -0.101091 151.260117 1686.963989
[R_Foot]
56 3041.560059 -30.531288 -11.204481 3.045072 -9.924300 46.498333 3041.734131
57 3041.560059 -30.531288 -11.204481 2.213431 -10.341638 47.255802 3041.734131
58 3041.560059 -30.531288 -11.204481 1.375059 -10.748098 48.020454 3041.734131
[planeAlignerRight]
56 -81.614578 -677.893005 -202.881165 -36.777313 -78.340645 -60.350937 712.292480
57 -91.287880 -659.940735 -225.433105 -36.787937 -76.969307 -61.117073 703.331604
58 -99.435783 -641.861206 -245.043564 -36.871212 -75.598625 -61.812393 694.204346
[R_Toe1_01]
56 -188.383347 -224.864899 21.052242 81.044182 -1.554784 -163.595703 294.101532
57 -188.383347 -224.864899 21.052242 79.842598 -1.365256 -165.412186 294.101532
58 -188.383347 -224.864899 21.052242 78.636116 -1.213983 -167.231430 294.101532
[R_Toe2_01]
56 200.637817 -220.002121 -148.787384 -97.796371 18.695475 -57.853779 332.857574
57 200.637817 -220.002121 -148.787384 -97.464622 21.034506 -58.117130 332.857574
58 200.637817 -220.002121 -148.787384 -97.138863 23.375919 -58.370270 332.857574
[R_Toe3_01]
56 188.606735 -220.092957 191.126343 -66.336273 -16.926079 -72.775810 347.192566
57 188.606735 -220.092957 191.126343 -67.164177 -15.135040 -72.960205 347.192566
58 188.606735 -220.092957 191.126343 -67.990952 -13.347849 -73.169586 347.192566
[planeLockWeightRight]
56 999.999878 0.000166 -0.000395 -0.011823 -0.004379 -0.000027 999.999878
57 999.999878 0.000172 -0.000397 -0.011823 -0.004379 -0.000027 999.999878
58 999.999878 0.000178 -0.000399 -0.011823 -0.004379 -0.000027 999.999878
[R_Toe1_02]
56 413.762085 0.000477 -0.000119 0.001389 -25.289391 0.001389 413.762085
57 413.762085 0.000477 -0.000119 0.001390 -25.200848 0.001390 413.762085
58 413.762085 0.000477 -0.000119 0.001391 -25.112307 0.001391 413.762085
[R_Toe1_03]
56 464.317810 0.000000 0.001088 0.005507 65.387741 0.005507 464.317810
57 464.317810 0.000000 0.001088 0.005775 66.549522 0.005775 464.317810
58 464.317810 0.000000 0.001088 0.005952 67.253838 0.005952 464.317810
[R_Toe2_02]
56 342.234741 -0.000954 0.000238 0.001201 -65.528046 0.001201 342.234741
57 342.234741 -0.000954 0.000238 0.001200 -65.936287 0.001200 342.234741
58 342.234741 -0.000954 0.000238 0.001199 -66.344513 0.001199 342.234741
[R_Toe2_03]
56 420.210846 0.000715 -0.000268 -0.005151 70.397110 -0.001602 420.210846
57 420.210846 0.000715 -0.000268 -0.005306 71.279129 -0.001762 420.210846
58 420.210846 0.000715 -0.000268 -0.005477 72.161125 -0.001937 420.210846
[R_Toe3_02]
56 329.270355 -0.000477 -0.000954 0.000600 -69.718559 0.000600 329.270355
57 329.270355 -0.000477 -0.000954 0.001190 -70.889267 0.001190 329.270355
58 329.270355 -0.000477 -0.000954 0.001189 -71.682388 0.001189 329.270355
[R_Toe3_03]
56 439.137939 0.000238 0.001431 0.007997 73.109001 0.007997 439.137939
57 439.137939 0.000238 0.001431 0.009155 75.270309 0.009155 439.137939
58 439.137939 0.000238 0.001431 0.010444 77.094788 0.010444 439.137939
[Rear_Leg02]
56 1162.777710 -0.029802 0.005960 -1.281383 2.350075 -81.163498 1162.777710
57 1162.777710 -0.029802 0.005960 -0.109093 0.204841 -74.072472 1162.777710
58 1162.777710 -0.029802 0.005960 0.378829 -1.900147 -75.503838 1162.777710
[Rear_Leg03]
56 607.192505 -0.013351 -0.073195 0.010394 -0.005303 70.414551 607.192505
57 607.192505 -0.013351 -0.073195 0.010548 -0.004990 66.987953 607.192505
58 607.192505 -0.013351 -0.073195 0.008555 -0.003464 64.814491 607.192505
[Rear_Leg04]
56 995.874512 -0.020504 -0.011921 -0.040846 -0.017338 71.361656 995.874573
57 995.874512 -0.020504 -0.011921 -0.043807 -0.017405 63.726936 995.874573
58 995.874512 -0.020504 -0.011921 -0.040696 -0.014675 59.614082 995.874573
[Rear_Foot]
56 3096.176270 -0.067472 -0.041425 164.181442 82.588173 -0.031067 3096.176270
57 3096.176270 -0.067472 -0.041425 177.129272 86.826637 4.637923 3096.176270
58 3096.176270 -0.067472 -0.041425 -159.486343 85.179840 29.362812 3096.176270
[planeAlignerCenter]
56 7.118841 150.833252 -1019.778992 5.119322 -0.001585 179.998276 1030.897949
57 94.943916 144.526840 -885.222656 5.504368 -0.001579 179.998260 901.954285
58 56.482712 75.189186 -743.741150 5.889431 -0.001573 179.998260 749.663025
[Rear_Toe1_01]
56 0.653352 83.966492 -371.173737 0.045807 45.141903 89.985596 380.553192
57 0.653352 83.966492 -371.173737 -3.063659 39.264847 84.596214 380.553192
58 0.653352 83.966492 -371.173737 -1.218989 33.934643 87.279770 380.553192
[Rear_Toe2_01]
56 178.200760 -294.826019 -362.060547 22.340208 67.141869 -41.585274 499.765686
57 178.200760 -294.826019 -362.060547 11.717463 52.109333 -46.200966 499.765686
58 178.200760 -294.826019 -362.060547 0.725358 40.393127 -58.429893 499.765686
[Rear_Toe3_01]
56 -153.359680 -308.780914 -362.060852 -13.393033 67.214851 -127.730484 499.952881
57 -153.359680 -308.780914 -362.060852 0.044415 52.306652 -112.412033 499.952881
58 -153.359680 -308.780914 -362.060852 1.144371 40.483028 -112.182037 499.952881
[planeLockWeightCenter]
56 740.728271 0.000610 -0.000153 -0.011814 -0.004373 -0.000015 740.728210
57 999.993103 0.000305 -0.000124 -0.011814 -0.004373 -0.000015 999.993103
58 1000.000000 0.000305 -0.000124 -0.011814 -0.004373 -0.000015 1000.000000
[Rear_Toe1_02]
56 379.707825 0.194073 0.000477 0.001332 -33.593773 0.001332 379.707855
57 379.707825 0.194073 0.000477 -0.000304 -32.525909 0.006969 379.707855
58 379.707825 0.194073 0.000477 -0.000138 -30.224529 0.006879 379.707855
[Rear_Toe1_03]
56 500.129700 0.165701 0.000119 0.007408 71.770050 0.007408 500.129761
57 500.129700 0.165701 0.000119 -0.003849 57.048615 -0.000203 500.129761
58 500.129700 0.165701 0.000119 -0.000681 45.474846 0.006876 500.129761
[Rear_Toe2_02]
56 340.494507 0.000238 -0.000954 0.000000 -89.489479 0.002347 340.494507
57 340.494507 0.000238 -0.000954 0.001175 -84.112701 0.001175 340.494507
58 340.494507 0.000238 -0.000954 0.001189 -71.546700 0.001189 340.494507
[Rear_Toe2_03]
56 433.103577 0.000000 0.000238 -179.995178 68.195908 -179.998749 433.103546
57 433.103577 0.000000 0.000238 179.979767 83.352882 179.979767 433.103546
58 433.103577 0.000000 0.000238 0.007704 72.474304 0.007704 433.103546
[Rear_Toe3_02]
56 340.494141 -0.000358 -0.000477 0.000000 -89.607330 0.005856 340.494171
57 340.494141 -0.000358 -0.000477 0.001170 -88.546936 0.001177 340.494171
58 340.494141 -0.000358 -0.000477 0.001184 -75.122993 0.001184 340.494171
[Rear_Toe3_03]
56 433.103577 0.001431 -0.000238 -179.998810 67.802246 -179.995239 433.103546
57 433.103577 0.001431 -0.000238 -179.998245 71.276207 -179.994690 433.103546
58 433.103577 0.001431 -0.000238 0.011647 78.434181 0.011647 433.103546
[Back_Bone]
56 1312.175781 -701.934692 0.000954 2.098315 -3.274566 -89.476624 1488.125488
57 1312.175781 -701.934692 0.000954 1.811105 -3.400257 -89.405083 1488.125488
58 1312.175781 -701.934692 0.000954 1.523696 -3.525579 -89.332901 1488.125488
[Head]
56 1406.159424 809.709290 0.001431 1.117105 0.176782 6.614599 1622.625488
57 1406.159424 809.709290 0.001431 1.060763 0.093409 6.673808 1622.625488
58 1406.159424 809.709290 0.001431 1.004333 0.010094 6.733100 1622.625488
[Motor_Bone]
56 1158.364380 -417.834747 0.000477 2.270533 -1.149501 -107.133369 1231.419434
57 1158.364380 -417.834747 0.000477 1.114836 -1.132542 -107.122055 1231.419434
58 1158.364380 -417.834747 0.000477 -1.034432 -1.094877 -107.077393 1231.419434
[Ping_Mechanism]
56 1288.027466 -455.725098 15.180966 0.000103 -0.000053 82.120995 1366.356567
57 1287.914795 -455.110504 18.808954 0.000103 -0.000053 82.120995 1366.090698
58 1291.995239 -455.723846 19.889368 0.000103 -0.000053 82.120995 1370.157471
[BN_LookIK]
56 193.241119 1380.371704 -0.002861 0.000000 89.965736 -31.038179 1393.832153
57 193.241119 1380.371704 -0.002861 0.000000 89.965736 -31.038179 1393.832153
58 193.241119 1380.371704 -0.002861 0.000000 89.965736 -31.038179 1393.832153
[bottomMouth]
56 -435.092926 615.759399 -0.000954 -0.000022 0.000016 73.527184 753.966492
57 -435.092926 615.759399 -0.000954 -0.000022 0.000016 73.527184 753.966492
58 -435.092926 615.759399 -0.000954 -0.000022 0.000016 73.527184 753.966492
[L_Mouth01]
56 554.440979 7.658243 838.222046 150.204178 23.759130 109.605339 1005.027161
57 554.440979 7.658243 838.222046 150.204178 23.759130 109.605339 1005.027161
58 554.440979 7.658243 838.222046 150.204178 23.759130 109.605339 1005.027161
[L_mouthFront]
56 551.629089 934.514771 339.150421 0.000081 2.804060 79.119301 1136.941284
57 551.629089 934.514771 339.150421 0.000081 2.804060 79.119301 1136.941284
58 551.629089 934.514771 339.150421 0.000081 2.804060 79.119301 1136.941284
[mouthGun]
56 55.332661 1627.420898 0.000000 0.000023 0.000009 -11.038128 1628.361328
57 55.332661 1627.420898 0.000000 0.000023 0.000009 -11.038128 1628.361328
58 55.332661 1627.420898 0.000000 0.000023 0.000009 -11.038128 1628.361328
[R_Mouth01]
56 554.442383 7.659197 -838.223938 29.795891 -23.759109 109.605331 1005.029541
57 554.442383 7.659197 -838.223938 29.795891 -23.759109 109.605331 1005.029541
58 554.442383 7.659197 -838.223938 29.795891 -23.759109 109.605331 1005.029541
[R_mouthFront]
56 551.629089 934.514282 -339.151367 0.000029 -2.803930 79.119133 1136.941162
57 551.629089 934.514282 -339.151367 0.000029 -2.803930 79.119133 1136.941162
58 551.629089 934.514282 -339.151367 0.000029 -2.803930 79.119133 1136.941162
[TopMouth]
56 461.269867 -56.106091 -0.008583 -0.000059 -0.000268 92.025169 464.669525
57 461.269867 -56.106091 -0.008583 -0.000059 -0.000268 92.025169 464.669525
58 461.269867 -56.106091 -0.008583 -0.000059 -0.000268 92.025169 464.669525
[weapon_bone]
56 -987.239868 1448.372803 0.001431 0.000000 89.965736 -31.038221 1752.833740
57 -987.239868 1448.372803 0.001431 0.000000 89.965736 -31.038221 1752.833740
58 -987.239868 1448.372803 0.001431 0.000000 89.965736 -31.038221 1752.833740
